<svg xmlns="http://www.w3.org/2000/svg" width="176.738" height="206.087" viewBox="0 0 176.738 206.087">
  <g id="Groupe_2464" data-name="Groupe 2464" transform="translate(-15971.524 8409)">
    <g id="Groupe_1216" data-name="Groupe 1216" transform="translate(15977.638 -8409)">
      <g id="Union_11" data-name="Union 11" transform="translate(51.129 0)">
        <path id="Tracé_1622" data-name="Tracé 1622" d="M262.534,155.061l-31.377-24.9c0-.093,0-.18,0-.263a31.155,31.155,0,0,1,5.926-18.355l.314-.435-.451-.288a3.07,3.07,0,0,1-.516-.415l-5.011-5.011a3.037,3.037,0,0,1,4.295-4.294l5.011,5.011a2.933,2.933,0,0,1,.237.265l.333.421.4-.356a31.381,31.381,0,0,1,42.122.395l.462.426.318-.542a3.091,3.091,0,0,1,.473-.61l5.011-5.009a3.036,3.036,0,1,1,4.294,4.294l-5.011,5.011a3,3,0,0,1-.962.65l-.579.245.362.513a31.173,31.173,0,0,1,5.732,18.086c0,.093,0,.18,0,.262Z" transform="translate(-230.02 -98.01)" fill="#1d242b"/>
        <path id="Tracé_1623" data-name="Tracé 1623" d="M262.54,154.42l30.873-24.5V129.9a30.667,30.667,0,0,0-5.639-17.793l-.725-1.026,1.157-.49a2.508,2.508,0,0,0,.8-.542l5.01-5.011a2.53,2.53,0,0,0-3.578-3.578l-5.01,5.01a2.508,2.508,0,0,0-.395.508l-.637,1.083-.922-.852a30.841,30.841,0,0,0-41.442-.389l-.8.713-.665-.84a2.439,2.439,0,0,0-.2-.223l-5.01-5.01a2.53,2.53,0,1,0-3.578,3.578l5.01,5.011a2.568,2.568,0,0,0,.43.346l.9.577-.628.869a30.654,30.654,0,0,0-5.83,18.059v.017l30.873,24.5m0,1.293-31.885-25.306h0c0-.168,0-.338,0-.506a31.74,31.74,0,0,1,6.022-18.651,3.613,3.613,0,0,1-.6-.484l-5.011-5.01a3.543,3.543,0,1,1,5.011-5.01l5.01,5.01a3.616,3.616,0,0,1,.276.31,31.888,31.888,0,0,1,42.8.4,3.592,3.592,0,0,1,.551-.711l5.011-5.01a3.543,3.543,0,0,1,5.01,5.01l-5.01,5.01a3.537,3.537,0,0,1-1.122.758,31.738,31.738,0,0,1,5.824,18.377c0,.168,0,.338,0,.506h0Z" transform="translate(-230.027 -98.016)" fill="#1d242b"/>
      </g>
      <g id="Polygone_102" data-name="Polygone 102" transform="translate(63.541 95.488)">
        <path id="Tracé_1624" data-name="Tracé 1624" d="M281.475,210.732H243.3a.506.506,0,0,1-.335-.886l19.089-16.87a.507.507,0,0,1,.67,0l19.09,16.87a.507.507,0,0,1-.335.886Z" transform="translate(-242.283 -192.344)" fill="#1d242b"/>
        <path id="Tracé_1625" data-name="Tracé 1625" d="M262.392,193.362,243.3,210.232h38.178l-19.089-16.87h0m0-1.012a1.014,1.014,0,0,1,.671.254l19.089,16.869a1.013,1.013,0,0,1-.67,1.771H243.3a1.013,1.013,0,0,1-.67-1.771L261.722,192.6A1.011,1.011,0,0,1,262.392,192.35Z" transform="translate(-242.289 -192.35)" fill="#1d242b"/>
      </g>
      <g id="Polygone_103" data-name="Polygone 103" transform="translate(63.541 134.627)">
        <path id="Tracé_1626" data-name="Tracé 1626" d="M243.3,231.516h38.178a.506.506,0,0,1,.335.885l-19.09,16.87a.507.507,0,0,1-.67,0L242.962,232.4a.505.505,0,0,1,.335-.885Z" transform="translate(-242.283 -231.01)" fill="#1d242b"/>
        <path id="Tracé_1627" data-name="Tracé 1627" d="M262.392,248.9l19.089-16.869H243.3L262.392,248.9h0m0,1.012a1.01,1.01,0,0,1-.67-.254l-19.089-16.869a1.012,1.012,0,0,1,.67-1.77h38.178a1.012,1.012,0,0,1,.67,1.77l-19.089,16.869A1.013,1.013,0,0,1,262.392,249.909Z" transform="translate(-242.289 -231.016)" fill="#1d242b"/>
      </g>
      <g id="Tracé_1620" data-name="Tracé 1620" transform="translate(56.82 120.455)">
        <path id="Tracé_1628" data-name="Tracé 1628" d="M283.69,225.614H240.408l-3.958-8.1h51.029Z" transform="translate(-235.639 -217.01)" fill="#1d242b"/>
        <path id="Tracé_1629" data-name="Tracé 1629" d="M237.271,218.028l3.463,7.086h42.644l3.316-7.086H237.271m-1.622-1.012h52.636l-4.263,9.11H240.1Z" transform="translate(-235.649 -217.016)" fill="#1d242b"/>
      </g>
      <path id="Tracé_1630" data-name="Tracé 1630" d="M320.2,215.589c-23.612,0-54.835-35.775-56.183-37.334l4.592-3.973c.319.367,32.091,36.713,52.794,35.19,4.682-.346,8.342-2.7,11.187-7.18,8.092-12.751,1.832-23.091-2.621-28.12-11.432-12.913-35.943-20.236-57.167-10.14-16.817,8-25.019,18.459-32.258,27.689-7.669,9.778-14.912,19.015-30.248,21.252-8.57,1.25-15.314-.185-20.048-4.268-9-7.761-7.923-22.545-5.127-30.042,6.29-16.867,29.878-26.457,58.71-23.854l-.547,6.049c-25.658-2.314-47.236,5.882-52.473,19.928-2.32,6.222-2.843,17.936,3.4,23.32,3.342,2.881,8.459,3.842,15.207,2.858,12.933-1.886,18.852-9.434,26.346-18.991,7.272-9.272,16.322-20.812,34.427-29.424,23.812-11.327,51.4-3,64.323,11.6,9.5,10.731,10.668,23.635,3.2,35.4-3.892,6.133-9.231,9.492-15.869,9.983C321.309,215.57,320.756,215.589,320.2,215.589Z" transform="translate(-179.471 -97.34)" fill="#1d242b"/>
      <g id="Ellipse_2386" data-name="Ellipse 2386" transform="translate(144.938 95.183)">
        <circle id="Ellipse_2389" data-name="Ellipse 2389" cx="10.095" cy="10.095" r="10.095" transform="translate(0 0)" fill="#1d242b"/>
        <circle id="Ellipse_2390" data-name="Ellipse 2390" cx="9.616" cy="9.616" r="9.616" transform="translate(0.452 0.472)" fill="#1d242b"/>
      </g>
      <g id="Ellipse_2387" data-name="Ellipse 2387" transform="translate(0 94.462)">
        <circle id="Ellipse_2391" data-name="Ellipse 2391" cx="10.095" cy="10.095" r="10.095" transform="translate(0 0)" fill="#1d242b"/>
        <circle id="Ellipse_2392" data-name="Ellipse 2392" cx="9.616" cy="9.616" r="9.616" transform="translate(0.641 0.181)" fill="#1d242b"/>
      </g>
      <g id="Polygone_104" data-name="Polygone 104" transform="translate(62.263 53.849)">
        <path id="Tracé_1631" data-name="Tracé 1631" d="M241.538,162.172l2.139-10.057a.505.505,0,0,1,.864-.24l6.114,6.556a.505.505,0,0,1-.172.811l-8.253,3.5a.506.506,0,0,1-.692-.571Z" transform="translate(-241.02 -151.208)" fill="#1d242b"/>
        <path id="Tracé_1632" data-name="Tracé 1632" d="M250.292,158.783h0l-6.114-6.556h0l-2.139,10.056h0l8.253-3.5m.99.211a1,1,0,0,1-.6.721l-8.253,3.5a1.012,1.012,0,0,1-1.385-1.143l2.139-10.057a1.012,1.012,0,0,1,1.73-.48l6.114,6.556A1.007,1.007,0,0,1,251.282,158.994Z" transform="translate(-241.026 -151.214)" fill="#1d242b"/>
      </g>
    </g>
    <path id="Intersection_12" data-name="Intersection 12" d="M42.256,15.323A8.8,8.8,0,0,1,51.089,6.2c5.228,0,8.581,4,8.581,9.482v.9H46.221a5.275,5.275,0,0,0,5.553,4.8,7.37,7.37,0,0,0,4.939-1.911l1.731,2.488a10.15,10.15,0,0,1-7.067,2.524A8.754,8.754,0,0,1,42.256,15.323Zm3.93-1.406h9.807a4.658,4.658,0,0,0-4.9-4.615A4.8,4.8,0,0,0,46.186,13.917ZM22.174,15.323A8.8,8.8,0,0,1,31.007,6.2c5.228,0,8.581,4,8.581,9.482v.9H26.14a5.274,5.274,0,0,0,5.552,4.8,7.37,7.37,0,0,0,4.94-1.911l1.73,2.488a10.149,10.149,0,0,1-7.067,2.524A8.754,8.754,0,0,1,22.174,15.323Zm3.93-1.406H35.91a4.658,4.658,0,0,0-4.9-4.615A4.8,4.8,0,0,0,26.1,13.917ZM0,24.048V0H11.826c4.4,0,6.851,2.74,6.851,6.129a5.4,5.4,0,0,1-4.183,5.516,5.915,5.915,0,0,1,4.651,5.913c0,3.714-2.488,6.49-6.995,6.49Zm4.218-3.713h6.923c2.307,0,3.677-1.262,3.677-3.353,0-1.8-1.262-3.317-3.677-3.317H4.218Zm0-10.384h6.742c2.163,0,3.389-1.3,3.389-3.1a3.063,3.063,0,0,0-3.389-3.137H4.218Z" transform="translate(15971.524 -8234.028)" fill="#1d242b"/>
    <path id="Intersection_11" data-name="Intersection 11" d="M101.493,29.456l1.767-2.74a6.752,6.752,0,0,0,5.516,2.235c2.488,0,5.156-1.154,5.156-4.723V22.137a7.07,7.07,0,0,1-5.589,2.885c-4.434,0-7.715-3.209-7.715-8.942,0-5.625,3.245-8.942,7.715-8.942a6.938,6.938,0,0,1,5.589,2.848V7.572h3.785V24.084c0,6.274-4.651,7.968-8.942,7.968A9.829,9.829,0,0,1,101.493,29.456Zm3.064-13.376c0,3.353,1.911,5.588,4.9,5.588a5.651,5.651,0,0,0,4.471-2.343v-6.49a5.651,5.651,0,0,0-4.471-2.343C106.469,10.492,104.557,12.727,104.557,16.08ZM61.833,20.948V10.889H58.949V7.572h2.885V2.812h3.785v4.76h3.534v3.317H65.619V20.01c0,1.19.577,2.055,1.659,2.055a2.445,2.445,0,0,0,1.694-.613l.9,2.848A4.992,4.992,0,0,1,66.3,25.418C63.384,25.418,61.833,23.832,61.833,20.948ZM33.855,22.714l1.73-2.74A8.99,8.99,0,0,0,41.5,22.426c2.271,0,3.425-.829,3.425-2.127,0-1.514-1.839-2.055-3.966-2.524-2.992-.649-6.562-1.442-6.562-5.336,0-2.848,2.452-5.3,6.851-5.3a9.954,9.954,0,0,1,6.778,2.452l-1.586,2.668a7.026,7.026,0,0,0-5.156-2.091c-1.983,0-3.245.721-3.245,1.947,0,1.334,1.731,1.8,3.785,2.271,3.029.649,6.742,1.514,6.742,5.624,0,3.065-2.56,5.409-7.246,5.409A10.591,10.591,0,0,1,33.855,22.714ZM93.02,24.986V14.1c0-2.7-1.37-3.605-3.5-3.605a5.73,5.73,0,0,0-4.47,2.343v12.15H81.266V7.572h3.786V9.951a8.238,8.238,0,0,1,6.129-2.812c3.75,0,5.625,2.019,5.625,5.588V24.986Zm-20.443,0V7.572h3.786V24.986Zm-20.19,0V7.572h3.786V24.986Zm-25.707,0V7.572h3.785V24.986Zm-17.234,0L0,.937H4.8l7.283,19.47L19.361.937h4.8L14.71,24.986ZM72.108,2.343a2.343,2.343,0,1,1,2.343,2.343A2.362,2.362,0,0,1,72.108,2.343Zm-20.19,0a2.343,2.343,0,1,1,2.343,2.343A2.362,2.362,0,0,1,51.918,2.343Zm-25.707,0a2.343,2.343,0,1,1,2.343,2.343A2.362,2.362,0,0,1,26.212,2.343Z" transform="translate(16030.545 -8234.965)" fill="#ffd200"/>
  </g>
</svg>
